PathFileType	4	(X/Y/Z)	C:/Users/dbak576/Desktop/Duncan Bakke Modelling Files/H29s1/Static_H29s1.trc	
DataRate	CameraRate	NumFrames	NumMarkers	Units	OrigDataRate	OrigDataStartFrame	OrigNumFrames	
200.00	200.00	6	66	mm	200.00	368	734	
Frame#	Time	LFHD			RFHD			LBHD			RBHD			C7			T10			CLAV			STRN			RBack			LASI			RASI			LPSI			RACR1			RUA1			RElbow			RElbowM			RFA1			RWRR			RWRU			RCAR			LACR1			LUA1			LElbow			LElbowM			LFA1			LWRR			LWRU			LCAR			RTH1			RTH3			RTH2			RLFC			RMFC			RTB1			RTB3			RTB2			RTB4			RLMAL			RCAL			RMT1			RMT5			RToe			LTH1			LTH3			LTH2			LTH4			LLFC			LMFC			LTB1			LTB3			LTB2			LTB4			LLMAL			LCAL			LMT1			LMT5			LToe			RPSI			RMMAL			LMMAL			RTH4			*61			*62			*63			*64			*65			
		X1	Y1	Z1	X2	Y2	Z2	X3	Y3	Z3	X4	Y4	Z4	X5	Y5	Z5	X6	Y6	Z6	X7	Y7	Z7	X8	Y8	Z8	X9	Y9	Z9	X10	Y10	Z10	X11	Y11	Z11	X12	Y12	Z12	X13	Y13	Z13	X14	Y14	Z14	X15	Y15	Z15	X16	Y16	Z16	X17	Y17	Z17	X18	Y18	Z18	X19	Y19	Z19	X20	Y20	Z20	X21	Y21	Z21	X22	Y22	Z22	X23	Y23	Z23	X24	Y24	Z24	X25	Y25	Z25	X26	Y26	Z26	X27	Y27	Z27	X28	Y28	Z28	X29	Y29	Z29	X30	Y30	Z30	X31	Y31	Z31	X32	Y32	Z32	X33	Y33	Z33	X34	Y34	Z34	X35	Y35	Z35	X36	Y36	Z36	X37	Y37	Z37	X38	Y38	Z38	X39	Y39	Z39	X40	Y40	Z40	X41	Y41	Z41	X42	Y42	Z42	X43	Y43	Z43	X44	Y44	Z44	X45	Y45	Z45	X46	Y46	Z46	X47	Y47	Z47	X48	Y48	Z48	X49	Y49	Z49	X50	Y50	Z50	X51	Y51	Z51	X52	Y52	Z52	X53	Y53	Z53	X54	Y54	Z54	X55	Y55	Z55	X56	Y56	Z56	X57	Y57	Z57	X58	Y58	Z58	X59	Y59	Z59	X60	Y60	Z60	X61	Y61	Z61	X62	Y62	Z62	X63	Y63	Z63	X64	Y64	Z64	X65	Y65	Z65	X66	Y66	Z66	

368	1.835	-39.39909	-385.09799	1691.27039	59.73337	-385.13925	1694.74744	-47.71217	-527.56421	1596.51843				20.66853	-554.06732	1485.12085	17.30751	-554.51868	1164.43433	21.47068	-349.63559	1449.41479	20.40241	-255.16748	1303.23083	136.48735	-586.47797	1356.10852	-164.85278	-317.27853	1017.30695	206.28510	-315.85568	1017.10333	-30.39243	-568.28357	1039.96045	165.03894	-497.88382	1523.42102	332.28552	-459.85068	1470.43481	462.47815	-389.54684	1457.63989	444.09448	-286.95224	1382.72156	586.72333	-301.05286	1465.01160	644.10046	-189.45447	1514.98230				738.08459	-182.19762	1486.74670	-126.72141	-497.77753	1519.78137	-282.32877	-477.38660	1453.33069	-436.48657	-430.50067	1429.14368	-429.21204	-335.99020	1346.17371	-555.12311	-361.47763	1438.29309	-642.48688	-267.92661	1497.04138				-732.04462	-246.49072	1475.80347	239.03320	-410.45285	796.58313	226.44115	-386.11340	626.42834	223.47316	-339.68622	720.04132	222.20302	-397.26511	509.76688	66.51040	-388.47549	501.73792	160.60501	-339.83200	381.08844	157.92937	-375.47250	212.00105	216.29060	-380.37100	301.37961	159.38759	-357.03323	296.25201	191.53006	-468.83182	79.68041	143.33658	-528.57892	49.49983	151.95865	-306.84396	27.27128	250.41173	-366.06702	33.60448	189.97203	-259.52014	29.84441	-200.82056	-375.13727	790.80768	-192.78886	-366.82318	619.23645	-179.73715	-314.40329	709.09857	-195.83575	-371.84232	705.14490	-198.90034	-384.16101	533.81226	-45.29017	-364.86960	504.88165	-150.70769	-322.75385	399.02979	-145.79932	-359.29706	230.15654	-201.98413	-366.29172	317.92172	-146.49669	-337.92755	315.29825	-176.67233	-461.25433	81.37760	-131.75946	-517.26453	46.15572	-137.58578	-302.59836	40.28074	-227.56284	-348.14136	24.26529	-166.16508	-243.64304	26.81920	47.00775	-578.74731	1031.95288	107.33080	-430.87393	77.84541	-91.74752	-443.90515	78.87244	240.56984	-395.98111	713.08368	-660.80164	-255.01659	1430.43225				668.43774	-208.62280	1444.42419	100.23691	-512.45435	1610.58655			 
369	1.840	-39.50846	-385.02298	1691.27405	59.70469	-385.12463	1694.76453	-47.73499	-527.53943	1596.55896				20.60683	-554.08569	1485.14270	17.32683	-554.47076	1164.42700	21.43236	-349.56277	1449.38269	20.37011	-255.21417	1303.15662	136.54086	-586.45752	1356.12512	-164.82819	-317.20108	1017.32635	206.92657	-316.43655	1017.77753	-30.39802	-568.33984	1039.95886	165.07843	-497.85208	1523.35413	332.27045	-459.83578	1470.43530	462.47250	-389.52750	1457.61511	444.11652	-286.96347	1382.73645	586.79993	-301.12219	1465.13843	644.10583	-189.47617	1515.01074				738.14105	-182.24237	1486.76489	-126.71022	-497.77194	1519.75012	-282.32458	-477.38947	1453.34460	-436.53241	-430.54929	1429.16235	-428.53061	-336.12418	1346.37256	-555.11053	-361.53040	1438.28174	-642.49963	-267.97879	1497.02368				-732.17651	-246.63936	1475.86755	239.02635	-410.44742	796.57184	226.48656	-386.13300	626.46661	223.48073	-339.69412	720.03992	222.27933	-397.28262	509.73447	66.54051	-388.46033	501.73013	160.58447	-339.80634	381.08240	157.92062	-375.45193	212.00311	216.28255	-380.35941	301.36313	159.39629	-357.02756	296.23636	191.52301	-468.82748	79.68191	143.20023	-528.51215	49.23135	151.94684	-306.84570	27.27810	250.53308	-366.08444	33.58120	189.95879	-259.54285	29.81634	-200.82150	-375.13211	790.80994	-192.76942	-366.84766	619.26630	-179.73389	-314.37796	709.06897	-195.79996	-371.83630	705.14868	-198.91986	-384.13605	533.78070	-45.27100	-364.86960	504.85504	-150.70602	-322.76245	399.02191	-145.79404	-359.28366	230.13312	-201.97371	-366.28342	317.91568	-146.49603	-337.91617	315.30917	-176.67920	-461.24371	81.37624	-131.77446	-517.34418	46.14315	-137.58191	-302.54623	40.36889	-227.55109	-348.14340	24.25441	-166.17256	-243.59700	26.80206	46.96667	-578.76312	1031.93140	107.33916	-430.88776	77.82524	-91.81155	-444.01389	78.71375	240.20929	-396.54834	712.92273	-659.93304	-254.24907	1429.57935				668.22699	-208.64723	1444.37219	100.22427	-512.41052	1611.07422			 
370	1.845	-39.54102	-384.94977	1691.22168	59.67201	-385.10254	1694.78296	-47.76086	-527.51324	1596.60449				20.64994	-554.11151	1485.13147	17.35647	-554.43463	1164.41284	21.40051	-349.49591	1449.37476	20.35038	-255.25560	1303.09387	136.58684	-586.42950	1356.15039	-164.81076	-317.11319	1017.30768	207.26993	-316.81024	1017.90356	-30.42128	-568.40088	1039.99731	165.08282	-497.77060	1523.30408	332.23776	-459.82071	1470.45776	462.46387	-389.50912	1457.59546	444.14243	-286.97128	1382.75171	586.92218	-301.22357	1465.31750	644.12140	-189.48804	1515.00378				738.20038	-182.31874	1486.78552	-126.68014	-497.76718	1519.76794	-282.31256	-477.38040	1453.35291	-436.56952	-430.57974	1429.19275	-428.06757	-336.50958	1346.49670	-555.10571	-361.59430	1438.27551	-642.50623	-268.02643	1497.00549				-732.31842	-246.75919	1475.89929	239.03557	-410.46542	796.57025	226.45706	-386.18607	626.51904	223.47026	-339.69376	720.04181	222.35205	-397.30450	509.70358	66.56269	-388.45245	501.72461	160.58557	-339.81024	381.07382	157.91507	-375.43427	212.01254	216.27150	-380.34988	301.34494	159.37871	-357.02554	296.19302	191.52254	-468.83334	79.68382	143.14313	-528.37701	48.93329	151.93195	-306.84375	27.30130	250.51303	-366.11221	33.39285	189.95839	-259.55106	29.78541	-200.81042	-375.11914	790.79712	-192.78320	-366.85065	619.26105	-179.72585	-314.35046	709.02917	-195.78438	-371.82806	705.14429	-198.89697	-384.12482	533.79077	-45.25758	-364.87076	504.82858	-150.70627	-322.76913	399.02234	-145.78589	-359.27338	230.10867	-201.97179	-366.27911	317.90637	-146.50462	-337.90210	315.31509	-176.68275	-461.23227	81.37713	-131.77551	-517.33002	46.24038	-137.57132	-302.43253	40.52337	-227.54646	-348.14880	24.24058	-166.15663	-243.50275	26.84673	46.92375	-578.79871	1031.93787	107.35477	-430.90350	77.80265	-91.87669	-444.10226	78.56530	239.97865	-397.05893	712.79047	-659.17773	-253.04784	1428.74146				668.08179	-208.72366	1444.34082	100.19488	-512.38422	1611.48047			 
371	1.850	-39.69396	-384.86649	1691.23413	59.63747	-385.06299	1694.78821	-47.79913	-527.48212	1596.64551				20.78359	-554.13635	1485.08167	17.37904	-554.41119	1164.42029	21.37301	-349.43607	1449.38611	20.34904	-255.28639	1303.05725	136.61586	-586.40088	1356.17725	-164.78551	-317.02335	1017.26758	207.25467	-316.93015	1017.53271	-30.46229	-568.47058	1040.05286	165.04457	-497.68900	1523.33264	332.20987	-459.80103	1470.45264	462.43924	-389.49136	1457.60779	444.16959	-286.97681	1382.76147	587.09058	-301.34317	1465.51514	644.14978	-189.50377	1514.99231				738.32172	-182.47516	1486.80420	-126.65081	-497.76642	1519.83447	-282.29663	-477.36395	1453.36682	-436.60312	-430.60059	1429.21252	-427.88263	-337.06976	1346.52771	-555.11926	-361.64505	1438.26904	-642.52765	-268.07547	1496.98120				-732.45099	-246.86844	1475.88574	239.06660	-410.49689	796.56427	226.42863	-386.23517	626.52966	223.46938	-339.70096	720.03748	222.41942	-397.32739	509.67404	66.57607	-388.45285	501.72174	160.60045	-339.82584	381.06635	157.91650	-375.42032	212.02660	216.26051	-380.34570	301.33902	159.36887	-357.03366	296.16040	191.52956	-468.84854	79.68682	143.11337	-528.23370	48.67881	151.91737	-306.83978	27.32264	250.73627	-366.08945	33.38340	189.95711	-259.56229	29.75026	-200.79196	-375.08975	790.79224	-192.78055	-366.85239	619.27301	-179.71782	-314.33240	708.98761	-195.78630	-371.81857	705.13477	-198.83905	-384.13220	533.84088	-45.25228	-364.87427	504.80634	-150.69891	-322.77252	399.01370	-145.77660	-359.26495	230.08533	-201.97076	-366.28033	317.91003	-146.52177	-337.88748	315.32007	-176.69707	-461.21597	81.37144	-131.72371	-517.21503	46.34519	-137.58997	-302.41174	40.48645	-227.53896	-348.15817	24.23287	-166.11505	-243.40614	26.92371	46.88594	-578.84308	1031.96362	107.36748	-430.92191	77.79350	-91.95408	-444.18594	78.39429	239.92010	-397.43707	712.67065	-658.56799	-251.60884	1428.04858				668.08185	-208.92325	1444.40027	100.09644	-512.47144	1611.98926			 
372	1.855	-39.81334	-384.80472	1691.25391	59.59958	-384.99768	1694.78540	-47.83504	-527.45801	1596.65869				21.00245	-554.18652	1485.01587	17.40466	-554.39319	1164.43164	21.34117	-349.38284	1449.39014	20.36580	-255.30263	1303.04431	136.63066	-586.37280	1356.19678	-164.76955	-316.92584	1017.22321	207.31232	-317.00021	1017.42010	-30.51201	-568.51483	1040.12329	164.96800	-497.59891	1523.40662	332.17563	-459.78955	1470.46204	462.41327	-389.47586	1457.61426	444.19788	-286.98633	1382.76868	587.30487	-301.49435	1465.77576	644.19299	-189.52899	1514.98926				738.56146	-182.74136	1486.82031	-126.63857	-497.76529	1519.87817	-282.27945	-477.34625	1453.34644	-436.60696	-430.62454	1429.23523	-427.99081	-337.73654	1346.47363	-555.15637	-361.70245	1438.27759	-642.56458	-268.12915	1496.95593				-732.56726	-246.93384	1475.82983	239.12288	-410.53775	796.55408	226.38467	-386.24911	626.51263	223.45953	-339.70425	720.02667	222.41467	-397.31998	509.72879	66.58337	-388.46222	501.72107	160.62752	-339.84869	381.06619	157.92210	-375.40857	212.03656	216.25108	-380.34335	301.33151	159.36018	-357.04361	296.13791	191.53941	-468.86298	79.69999	143.26248	-528.10193	48.64035	151.89899	-306.83331	27.34686	251.18726	-365.97687	33.54087	189.96623	-259.55795	29.73823	-200.77895	-375.06546	790.79230	-192.81291	-366.83151	619.24426	-179.69693	-314.32059	708.96552	-195.79514	-371.80948	705.13971	-198.79286	-384.14218	533.89197	-45.25362	-364.87689	504.78616	-150.68730	-322.77383	399.00125	-145.76595	-359.26025	230.06566	-201.98077	-366.28229	317.90536	-146.53867	-337.87094	315.32489	-176.70702	-461.20792	81.37918	-131.61086	-517.03046	46.45876	-137.60513	-302.35605	40.50940	-227.53214	-348.17377	24.25039	-166.05815	-243.30762	27.03501	46.84379	-578.91760	1031.96228	107.38473	-430.92340	77.79185	-92.03188	-444.26025	78.21166	240.01515	-397.69263	712.61304	-658.12256	-250.14861	1427.55042				668.37988	-209.41473	1444.69543	99.92097	-512.69360	1612.59692			 
373	1.860	-39.84804	-384.74835	1691.21973	59.55825	-384.92645	1694.77563	-47.85912	-527.43500	1596.67065				21.17093	-554.14215	1484.94727	17.42125	-554.38422	1164.45520	21.31154	-349.34174	1449.40796	20.38651	-255.30527	1303.03528	136.62862	-586.35156	1356.20642	-164.74405	-316.82669	1017.19702	207.02055	-316.82568	1016.98541	-30.56838	-568.54553	1040.18152	164.88489	-497.50726	1523.46997	332.15085	-459.78012	1470.45911	462.37250	-389.49161	1457.64954	444.22806	-286.99649	1382.77173	587.51501	-301.62305	1465.98743	644.24121	-189.55888	1515.00525				738.82916	-182.98305	1486.84216	-126.60992	-497.73871	1519.84229	-282.25900	-477.32904	1453.32861	-436.61118	-430.62802	1429.23315	-428.36038	-338.46536	1346.33716	-555.20233	-361.74457	1438.29443	-642.62238	-268.17508	1496.92273				-732.65552	-246.95656	1475.72144	239.19363	-410.58286	796.54785	226.29518	-386.27655	626.51263	223.46202	-339.70044	720.01666	222.35886	-397.27374	509.83154	66.58216	-388.47675	501.72287	160.66093	-339.88785	381.07535	157.92674	-375.40048	212.04681	216.24406	-380.34500	301.33609	159.36026	-357.06091	296.12820	191.53450	-468.87326	79.69675	143.33636	-527.95874	48.58507	151.88535	-306.82455	27.36457	251.75414	-365.81702	33.78443	189.97997	-259.55838	29.72457	-200.77356	-375.04605	790.79437	-192.82661	-366.80539	619.24017	-179.68324	-314.31985	708.94812	-195.80858	-371.80386	705.15405	-198.81483	-384.12628	533.87366	-45.26043	-364.87997	504.77164	-150.67744	-322.77512	398.99634	-145.75475	-359.25952	230.05132	-201.99156	-366.28964	317.90424	-146.55089	-337.85501	315.32822	-176.71925	-461.20166	81.38023	-131.51414	-516.84290	46.51704	-137.62854	-302.40305	40.37147	-227.53346	-348.17902	24.25957	-166.03119	-243.29695	27.06460	46.81741	-578.95862	1031.98340	107.38775	-430.91888	77.78235	-92.11544	-444.31964	78.05637	240.33762	-397.67303	712.53552	-657.81885	-248.79703	1427.24927				668.94965	-210.17000	1445.19995	99.71196	-512.92975	1613.06775			 
